HIERARCHY
ROOT Hips
{
  OFFSET -33.9132 29.2015 117.021
  CHANNELS 6 Xposition Yposition Zposition Zrotation Xrotation Yrotation
  JOINT LeftUpLeg
  {
    OFFSET 8.64259 1.95398 -2.38835
    CHANNELS 3 Zrotation Xrotation Yrotation
    JOINT LeftLeg
    {
      OFFSET 43.7702 0 0
      CHANNELS 3 Zrotation Xrotation Yrotation
      JOINT LeftFoot
      {
        OFFSET 40.6238 0 0
        CHANNELS 3 Zrotation Xrotation Yrotation
        JOINT LeftToeBase
        {
          OFFSET 12.7242 0 0
          CHANNELS 3 Zrotation Xrotation Yrotation
          End Site
          {
            OFFSET 0 0 0
          }
        }
      }
    }
  }
  JOINT RightUpLeg
  {
    OFFSET -8.2249 1.95398 -2.59336
    CHANNELS 3 Zrotation Xrotation Yrotation
    JOINT RightLeg
    {
      OFFSET 43.5653 0 0
      CHANNELS 3 Zrotation Xrotation Yrotation
      JOINT RightFoot
      {
        OFFSET 40.6238 0 0
        CHANNELS 3 Zrotation Xrotation Yrotation
        JOINT RightToeBase
        {
          OFFSET 12.7242 0 0
          CHANNELS 3 Zrotation Xrotation Yrotation
          End Site
          {
            OFFSET 0 0 0
          }
        }
      }
    }
  }
  JOINT Spine
  {
    OFFSET 0.165834 0.87714 6.61349
    CHANNELS 3 Zrotation Xrotation Yrotation
    JOINT Spine1
    {
      OFFSET 7.38963 1.71661e-005 0
      CHANNELS 3 Zrotation Xrotation Yrotation
      JOINT Spine2
      {
        OFFSET 11.9445 1.14441e-005 0
        CHANNELS 3 Zrotation Xrotation Yrotation
        JOINT Spine3
        {
          OFFSET 14.7254 4.19617e-005 0
          CHANNELS 3 Zrotation Xrotation Yrotation
          JOINT Spine4
          {
            OFFSET 10.9679 0 0
            CHANNELS 3 Zrotation Xrotation Yrotation
            JOINT RightShoulder
            {
              OFFSET 2.46616 -1.6653 3.69651
              CHANNELS 3 Zrotation Xrotation Yrotation
              JOINT RightArm
              {
                OFFSET 13.0012 0 0
                CHANNELS 3 Zrotation Xrotation Yrotation
                JOINT RightForeArm
                {
                  OFFSET 28.7848 1.62311e-005 0
                  CHANNELS 3 Zrotation Xrotation Yrotation
                  JOINT RightHand
                  {
                    OFFSET 26.5688 1.62095e-005 0
                    CHANNELS 3 Zrotation Xrotation Yrotation
                    End Site
                    {
                      OFFSET 0 0 0
                    }
                  }
                }
              }
            }
            JOINT LeftShoulder
            {
              OFFSET 2.38034 -1.29275 -3.7523
              CHANNELS 3 Zrotation Xrotation Yrotation
              JOINT LeftArm
              {
                OFFSET 16.3182 6.07031e-005 0
                CHANNELS 3 Zrotation Xrotation Yrotation
                JOINT LeftForeArm
                {
                  OFFSET 27.0901 0 0
                  CHANNELS 3 Zrotation Xrotation Yrotation
                  JOINT LeftHand
                  {
                    OFFSET 24.5451 1.51738e-005 0
                    CHANNELS 3 Zrotation Xrotation Yrotation
                    End Site
                    {
                      OFFSET 0 0 0
                    }
                  }
                }
              }
            }
            JOINT Neck
            {
              OFFSET 5.0226 -0.0266342 0
              CHANNELS 3 Zrotation Xrotation Yrotation
              JOINT Head
              {
                OFFSET 6.69364 2.86102e-005 0
                CHANNELS 3 Zrotation Xrotation Yrotation
                End Site
                {
                  OFFSET 0 0 0
                }
              }
            }
          }
        }
      }
    }
  }
}
MOTION
Frames:	7
Frame Time:	0.0416667
0.851025 93.8488 -26.2799 97.4067 -61.5134 99.6261 -176.759 16.6988 102.154 -45.7878 31.3335 5.92979 89.003 18.8628 -6.67737 21.3284 -9.70567 11.6501 170.897 14.2389 67.6383 -29.7154 -20.8372 -9.18191 63.3416 -0.949378 -1.36578 16.6802 4.97501 1.95802 -0.281765 7.90742 -90.7276 11.0517 -0.898119 -1.36149 -0.61956 -0.957161 -1.32065 -23.1498 -0.447479 -1.56841 -3.13717 -0.447466 -1.56841 94.2723 -25.6178 -99.4035 51.8743 10.4707 15.4549 -4.36809 -25.4473 -5.01743 -13.5106 1.55711 -19.0478 -85.145 -42.0537 84.8727 -12.2534 -0.784493 -15.09 -8.7541 27.2351 -8.55685 6.38972 -1.96058 -28.7922 -24.3533 -6.05658 -5.66865 -10.989 -6.64724 0.439296 
-8.50238 91.145 -19.6691 97.7364 -61.0199 98.4496 -175.616 16.1246 108.615 -44.7872 34.1305 7.43387 89.4535 18.457 -8.02302 28.9502 -6.96467 15.8866 170.295 18.0764 66.7098 -34.0822 -21.0158 -7.33177 60.6895 0.32812 -0.196775 22.5704 2.90769 -0.378706 -0.529338 7.98385 -90.6016 10.9004 -1.33205 -1.06994 -0.770222 -1.37788 -1.01028 -23.3052 -0.948941 -1.42077 -3.29253 -0.948957 -1.42078 95.1301 -25.3861 -97.5955 52.4793 11.2649 18.5255 -4.55098 -29.1646 -5.08124 -12.2896 1.39208 -18.9235 -84.8789 -42.1372 85.3258 -13.1222 -3.47654 -10.5933 -8.61364 26.3799 -7.58695 8.56323 -2.30458 -26.8372 -24.1631 -6.73868 -5.15125 -11.3239 -7.16928 -1.29993 
-20.147 90.5185 -12.2399 104.957 -63.9629 104.028 -176.128 14.5183 114.199 -47.333 39.0675 11.671 68.7518 6.79199 -2.14832 42.2094 -0.351352 20.6885 168.941 19.5572 69.7714 -44.1128 -21.9354 -4.46625 65.1243 -3.70503 0.708809 39.9312 -4.36767 -4.54024 -0.437351 8.40139 -90.3949 10.0668 -1.05112 -0.697354 -1.60386 -1.08081 -0.650418 -24.1396 -0.792958 -0.981013 -4.1269 -0.792964 -0.981018 94.9637 -24.6118 -98.1706 54.3511 10.7642 18.064 -4.57877 -29.7087 -5.09149 -12.9909 1.2532 -16.8775 -84.0404 -42.5753 86.7772 -13.0043 -7.21825 -1.11908 -7.30355 23.8252 -8.36216 5.20083 -1.462 -25.74 -24.7476 -4.8805 -1.74777 -11.0353 -4.9687 -2.43681 
-30.8153 92.5574 -6.50179 110.996 -67.2834 110.404 173.172 18.1785 113.541 -62.8842 38.7416 18.9831 51.1198 -5.04524 -0.670866 13.1299 -11.1166 6.20017 169.184 17.4433 76.9961 -46.5572 -20.0504 -2.43494 70.855 -7.37784 1.82271 39.8063 -4.89109 -0.548647 -0.0911205 8.7653 -90.4221 9.34132 -0.371252 -0.809135 -2.3298 -0.406507 -0.792016 -24.8631 -0.110919 -0.883297 -4.85043 -0.110922 -0.883301 93.4902 -24.3755 -101.504 52.2363 10.0556 14.3492 -4.56177 -29.3767 -5.08549 -15.5882 1.55334 -17.0756 -83.7137 -44.0449 87.4976 -13.4886 -8.91519 6.94985 -6.16147 23.9707 -9.43885 2.68566 -0.901993 -25.6788 -26.2994 -3.32475 0.02539 -10.4338 -3.21049 -3.0589 
-38.6074 95.134 -2.55691 112.242 -71.3051 111.166 171.801 27.9822 106.803 -66.6279 27.7176 11.8211 60.6215 0.981435 1.82979 5.22706 -14.1822 3.2021 170.238 14.363 81.8314 -41.4998 -20.0497 -1.20949 72.875 -8.4998 1.71699 36.653 -3.89672 2.09654 0.394867 8.81369 -90.4631 9.24804 0.579899 -0.959502 -2.42315 0.53712 -0.984096 -24.9575 0.841448 -0.740872 -4.94483 0.841458 -0.740868 93.7734 -23.2851 -101.242 47.3169 9.50604 7.97823 -4.45088 -27.1577 -5.04488 -17.2033 2.19056 -20.2226 -83.7038 -45.374 87.6742 -16.5982 -8.49404 10.6592 -7.10489 26.928 -7.0517 4.64684 -1.13417 -23.3616 -27.3211 -3.2436 0.630667 -9.91067 -3.07116 -3.31277 
-44.6573 97.4124 1.24526 110.731 -76.1582 109.236 -176.655 36.2082 94.5915 -57.15 19.1774 1.59644 64.7247 2.83839 -1.5108 12.1372 -12.6821 7.08629 170.59 12.0019 84.93 -35.0195 -22.7455 0.538801 72.6669 -8.05298 1.36914 32.1205 -2.27647 3.63978 0.829855 8.69717 -90.4918 9.48638 1.4332 -1.08166 -2.18424 1.38421 -1.1437 -24.7246 1.69201 -0.600852 -4.71191 1.69201 -0.600855 93.9054 -22.2896 -101.288 43.9269 8.72849 0.637962 -4.28267 -23.641 -4.99221 -21.1171 3.57516 -24.8028 -83.0014 -44.4168 88.6931 -20.9717 -8.15536 14.4635 -7.4433 28.8683 -6.31747 2.27907 -0.699461 -24.6009 -27.7816 -3.08342 0.915504 -8.69463 -2.93592 -2.75904 
-49.8826 97.9972 5.6128 110.119 -80.0586 109.865 -166.143 37.6717 83.3623 -47.3243 8.85831 -6.88864 65.2945 2.41111 -3.3533 19.7013 -9.50484 9.50855 171.327 9.5953 88.9671 -31.7615 -25.2294 2.41073 73.0462 -8.48897 0.0594777 28.632 -1.2131 5.18156 1.03887 8.56483 -90.784 9.7539 1.71612 -1.69189 -1.91713 1.64001 -1.76578 -24.4568 2.1452 -1.09787 -4.44417 2.14521 -1.09787 93.8971 -21.4826 -101.587 41.7852 8.06642 -5.78538 -4.37431 -25.5751 -5.01844 -23.0286 4.99859 -30.1096 -82.6896 -44.1811 89.1742 -23.0339 -6.79297 17.9071 -8.44898 29.0336 -5.77774 2.21236 -0.59846 -23.0279 -28.1017 -2.86424 2.07641 -8.64224 -2.63671 -1.75301 
